HIERARCHY
ROOT Hips
{
	OFFSET 0.000000 0.000000 0.000000 
	CHANNELS 6 Xposition Yposition Zposition Zrotation Yrotation Xrotation
	JOINT LeftUpLeg
	{
		OFFSET 1.363060 -1.794630 0.839290 
		CHANNELS 3 Zrotation Yrotation Xrotation
		JOINT LeftLeg
		{
			OFFSET 2.448110 -6.726130 0.000000 
			CHANNELS 3 Zrotation Yrotation Xrotation
			JOINT LeftFoot
			{
				OFFSET 2.562200 -7.039590 0.000000 
				CHANNELS 3 Zrotation Yrotation Xrotation
				JOINT LeftToeBase
				{
					OFFSET 0.157640 -0.433110 2.322550 
					CHANNELS 3 Zrotation Yrotation Xrotation
					End Site
					{
						OFFSET 0.000000 0.000000 0.000000 
					}
				}
			}
		}
	}
	JOINT RightUpLeg
	{
		OFFSET -1.305520 -1.794630 0.839290 
		CHANNELS 3 Zrotation Yrotation Xrotation
		JOINT RightLeg
		{
			OFFSET -2.542530 -6.985550 0.000000 
			CHANNELS 3 Zrotation Yrotation Xrotation
			JOINT RightFoot
			{
				OFFSET -2.568260 -7.056230 0.000000 
				CHANNELS 3 Zrotation Yrotation Xrotation
				JOINT RightToeBase
				{
					OFFSET -0.164730 -0.452590 2.363150 
					CHANNELS 3 Zrotation Yrotation Xrotation
					End Site
					{
						OFFSET 0.000000 0.000000 0.000000 
					}
				}
			}
		}
	}
	JOINT Spine
	{
		OFFSET 0.028270 2.035590 -0.193380 
		CHANNELS 3 Zrotation Yrotation Xrotation
		JOINT Spine1
		{
			OFFSET 0.056720 2.048850 -0.042750 
			CHANNELS 3 Zrotation Yrotation Xrotation
			JOINT Neck1
			{
				OFFSET -0.054170 1.746240 0.172020 
				CHANNELS 3 Zrotation Yrotation Xrotation
				JOINT Head
				{
					OFFSET 0.104070 1.761360 -0.123970 
					CHANNELS 3 Zrotation Yrotation Xrotation
					End Site
					{
						OFFSET 0.000000 0.000000 0.000000 
					}
				}
			}
			JOINT LeftArm
			{
				OFFSET 3.362410 1.200890 -0.311210 
				CHANNELS 3 Zrotation Yrotation Xrotation
				JOINT LeftForeArm
				{
					OFFSET 4.983000 -0.000000 -0.000000 
					CHANNELS 3 Zrotation Yrotation Xrotation
					JOINT LeftHand
					{
						OFFSET 3.483560 -0.000000 -0.000000 
						CHANNELS 3 Zrotation Yrotation Xrotation
						JOINT LeftHandIndex1
						{
							OFFSET 0.715260 -0.000000 -0.000000 
							CHANNELS 3 Zrotation Yrotation Xrotation
							End Site
							{
								OFFSET 0.000000 0.000000 0.000000 
							}
						}
					}
				}
			}
			JOINT RightArm
			{
				OFFSET -3.136600 1.374050 -0.404650 
				CHANNELS 3 Zrotation Yrotation Xrotation
				JOINT RightForeArm
				{
					OFFSET -5.241900 -0.000000 -0.000000 
					CHANNELS 3 Zrotation Yrotation Xrotation
					JOINT RightHand
					{
						OFFSET -3.444170 -0.000000 -0.000000 
						CHANNELS 3 Zrotation Yrotation Xrotation
						JOINT RightHandIndex1
						{
							OFFSET -0.622530 -0.000000 -0.000000 
							CHANNELS 3 Zrotation Yrotation Xrotation
							End Site
							{
								OFFSET 0.000000 0.000000 0.000000 
							}
						}
					}
				}
			}
		}
	}
}
MOTION
Frames: 12
Frame Time: 0.041667
6.458845 17.024839 -2.700537 -166.658969 -83.060449 166.661317 -9.405727 6.250936 -27.739717 7.347083 17.266402 52.978912 3.008511 -4.936288 -2.052170 0.688200 -5.303600 -14.776500 14.248011 -0.451962 -26.908342 -7.037223 -17.665289 52.651343 2.609929 -10.010573 -7.617105 -0.544700 4.728300 -13.135300 0.437104 1.391818 -2.517635 3.050378 0.519834 0.446628 6.629594 -13.379982 4.597077 11.198700 -4.757000 -0.796300 2.843355 -44.771690 -9.128339 34.895502 -41.390382 -19.808949 -0.975794 -3.965009 0.640660 -7.125000 0.000000 0.000000 -0.570356 50.145318 -12.601979 -31.510620 39.545779 -19.730270 -1.821825 0.350729 -2.097415 7.125000 0.000000 0.000000 
6.458497 17.027041 -2.700305 -166.753099 -82.993014 166.725580 -9.405059 6.315042 -27.686658 7.327388 17.250854 52.919810 2.982958 -4.861646 -2.007268 0.673800 -5.248800 -14.619500 14.243324 -0.376623 -26.838734 -7.019607 -17.657375 52.599595 2.634734 -10.065758 -7.572327 -0.548600 4.745000 -13.182600 0.439030 1.404926 -2.503990 3.106942 0.512519 0.576018 6.613427 -13.403447 4.607044 11.188300 -4.762600 -0.776500 2.878642 -44.749072 -9.166786 34.908013 -41.405822 -19.831414 -0.978270 -3.972882 0.635929 -7.125000 0.000000 0.000000 -0.717869 50.245887 -12.701590 -31.545083 39.595885 -19.760753 -1.846163 0.390645 -2.121083 7.125000 0.000000 0.000000 
6.458381 17.033186 -2.699146 -167.623990 -82.954640 167.593156 -9.509801 6.353899 -27.647435 7.286055 17.233344 52.825061 2.940176 -4.747835 -1.946039 0.680600 -5.274900 -14.694300 14.138413 -0.336290 -26.804862 -7.007947 -17.646632 52.550177 2.624809 -10.033612 -7.523503 -0.560500 4.795500 -13.326300 0.436021 1.399998 -2.492665 3.158872 0.502376 0.663930 6.632237 -13.420390 4.560713 11.222700 -4.751600 -0.841700 2.934395 -44.736965 -9.244048 34.847196 -41.385952 -19.795847 -0.971858 -3.978133 0.677423 -7.125000 0.000000 0.000000 -0.823627 50.331277 -12.766121 -31.596764 39.648871 -19.793152 -1.844346 0.398856 -2.168288 7.125000 0.000000 0.000000 
6.457106 17.040605 -2.697755 -168.015076 -82.957497 168.034594 -9.563500 6.329307 -27.644858 7.248322 17.219814 52.736170 2.929350 -4.733549 -1.830686 0.648500 -5.151300 -14.340700 14.081694 -0.369442 -26.822701 -6.991640 -17.632659 52.490321 2.604771 -9.976628 -7.479558 -0.560500 4.795200 -13.325400 0.439839 1.367422 -2.484279 3.236245 0.474075 0.774581 6.642057 -13.439755 4.509265 11.239700 -4.739500 -0.898200 2.976638 -44.720392 -9.360161 34.768498 -41.353721 -19.755223 -0.964022 -3.985432 0.743756 -7.125000 0.000000 0.000000 -0.953047 50.443564 -12.848427 -31.658196 39.704517 -19.818206 -1.828172 0.396431 -2.233379 7.125000 0.000000 0.000000 
6.456526 17.046402 -2.697755 -167.824552 -82.940602 167.862721 -9.533087 6.334471 -27.620377 7.221880 17.202774 52.657104 2.946063 -4.787240 -1.725211 0.589600 -4.916200 -13.669600 14.102228 -0.373638 -26.803840 -6.967852 -17.618640 52.416845 2.631812 -10.034923 -7.421542 -0.560600 4.795600 -13.326600 0.441247 1.371628 -2.473986 3.237710 0.468976 0.869334 6.641103 -13.519449 4.462856 11.231200 -4.761400 -0.940400 2.989926 -44.721187 -9.387237 34.768234 -41.363217 -19.756596 -0.962457 -3.971569 0.791877 -7.125000 0.000000 0.000000 -1.036988 50.482987 -12.971423 -31.665988 39.725350 -19.832946 -1.826707 0.399221 -2.238416 7.125000 0.000000 0.000000 
6.458265 17.046866 -2.697291 -168.235254 -82.938716 168.276557 -9.576140 6.306391 -27.593579 7.200808 17.195093 52.606346 2.937770 -4.755065 -1.762956 0.603100 -4.971200 -13.826400 14.039699 -0.391034 -26.771466 -6.948572 -17.599446 52.338703 2.658763 -10.088454 -7.334497 -0.564100 4.810500 -13.368800 0.433919 1.398060 -2.471613 3.164667 0.491120 0.842471 6.635663 -13.633467 4.409212 11.213000 -4.805900 -1.000100 2.937718 -44.752413 -9.283130 34.880540 -41.431224 -19.828494 -0.961463 -3.953078 0.978592 -7.125000 0.000000 0.000000 -0.977028 50.378480 -12.918349 -31.618067 39.697805 -19.826045 -1.848794 0.417773 -2.170918 7.125000 0.000000 0.000000 
6.460352 17.048141 -2.695320 -167.893440 -82.939269 167.965856 -9.537732 6.260475 -27.582535 7.178567 17.181282 52.536197 2.936027 -4.739272 -1.760872 0.622900 -5.050700 -14.053400 14.065064 -0.434289 -26.775090 -6.922730 -17.583327 52.263855 2.637189 -10.027129 -7.282370 -0.564200 4.811000 -13.370200 0.434540 1.394085 -2.471084 3.099412 0.492986 0.864082 6.584515 -13.720748 4.425581 11.135300 -4.855600 -0.964900 2.891970 -44.781146 -9.290288 35.024525 -41.508696 -19.945766 -0.953936 -3.949898 1.244408 -7.125000 0.000000 0.000000 -0.952860 50.332240 -12.854342 -31.599150 39.689938 -19.822307 -1.863327 0.432679 -2.142997 7.125000 0.000000 0.000000 
6.460236 17.055561 -2.692074 -167.417238 -82.942343 167.532515 -9.483584 6.190891 -27.545847 7.146592 17.161999 52.441360 2.973527 -4.849306 -1.662580 0.544500 -4.727700 -13.133500 14.107025 -0.479207 -26.801634 -6.893382 -17.568178 52.183822 2.608655 -9.950871 -7.245170 -0.556300 4.777500 -13.274900 0.439425 1.357178 -2.468040 3.041126 0.468664 0.983246 6.465490 -13.746539 4.520984 10.936200 -4.901200 -0.862800 2.907512 -44.755648 -9.328832 35.004962 -41.493474 -19.936835 -0.954231 -3.949961 1.213999 -7.125000 0.000000 0.000000 -0.987118 50.396589 -12.885636 -31.607618 39.706668 -19.824167 -1.864582 0.430546 -2.162276 7.125000 0.000000 0.000000 
6.460004 17.063444 -2.689176 -168.178027 -82.967908 168.287348 -9.574229 6.104941 -27.476839 7.107421 17.150672 52.359608 2.985076 -4.888943 -1.634482 0.495800 -4.514600 -12.529000 13.994799 -0.555105 -26.785992 -6.873655 -17.542960 52.096236 2.601432 -9.918824 -7.152701 -0.549500 4.748700 -13.193300 0.435816 1.345980 -2.469643 3.011598 0.463007 0.996411 6.391806 -13.755898 4.577504 10.796400 -4.930900 -0.817400 2.847076 -44.700560 -9.126898 34.899761 -41.430904 -19.835868 -0.969928 -3.945014 0.982959 -7.125000 0.000000 0.000000 -0.907582 50.375812 -12.771901 -31.585816 39.688297 -19.800462 -1.865182 0.421210 -2.201934 7.125000 0.000000 0.000000 
6.460352 17.069009 -2.689987 -168.291222 -82.957430 168.359933 -9.575600 6.126036 -27.422653 7.079916 17.130896 52.278283 2.944393 -4.761707 -1.637065 0.564100 -4.810400 -13.368600 13.977080 -0.570680 -26.732688 -6.851056 -17.524837 52.023507 2.588305 -9.875654 -7.076065 -0.544600 4.727900 -13.134000 0.433553 1.364139 -2.471982 2.980131 0.476391 0.913198 6.382838 -13.613281 4.588549 10.782200 -4.873200 -0.884200 2.676569 -44.652496 -8.786194 35.003041 -41.487682 -19.912957 -0.978944 -3.981458 0.727993 -7.125000 0.000000 0.000000 -0.781099 50.302196 -12.569603 -31.547891 39.652065 -19.756774 -1.857193 0.407270 -2.213035 7.125000 0.000000 0.000000 
6.461743 17.073994 -2.690567 -167.630196 -82.929140 167.727849 -9.495909 6.207323 -27.453559 7.058551 17.104670 52.188019 2.909058 -4.648534 -1.582651 0.640700 -5.120800 -14.253400 14.055915 -0.515725 -26.745148 -6.821581 -17.518139 51.963447 2.526745 -9.723573 -7.073011 -0.505900 4.559400 -12.656100 0.436496 1.366163 -2.477972 2.971501 0.485589 0.815342 6.439482 -13.714107 4.527807 10.890800 -4.902200 -0.944300 2.568056 -44.617156 -8.556388 35.244250 -41.627649 -20.125754 -0.973947 -4.059268 0.396734 -7.125000 0.000000 0.000000 -0.727498 50.225363 -12.386273 -31.549750 39.649105 -19.748874 -1.854946 0.409934 -2.210354 7.125000 0.000000 0.000000 
6.466264 17.079443 -2.689060 -168.001211 -82.926635 168.191175 -9.551317 6.232153 -27.555220 7.029871 17.091264 52.112053 2.909261 -4.656510 -1.506858 0.640100 -5.118500 -14.247000 14.002362 -0.484505 -26.811708 -6.795820 -17.502815 51.880854 2.505677 -9.668561 -7.055418 -0.484100 4.461600 -12.379100 0.435993 1.357675 -2.489915 2.991436 0.487462 0.728550 6.437577 -13.793221 4.490141 10.901100 -4.932200 -0.973200 2.569037 -44.542514 -8.477157 35.315721 -41.660681 -20.195436 -0.953565 -4.087130 0.224209 -7.125000 0.000000 0.000000 -0.683446 50.147598 -12.237857 -31.559414 39.645333 -19.749238 -1.848724 0.396031 -2.244177 7.125000 0.000000 0.000000 
